<?xml version="1.0" encoding="UTF-8"?>
<!DOCTYPE svg PUBLIC "-//W3C//DTD SVG 1.1//EN" "http://www.w3.org/Graphics/SVG/1.1/DTD/svg11.dtd">
<!-- Creator: CorelDRAW 2019 (64-Bit) -->
<svg xmlns="http://www.w3.org/2000/svg"  xml:space="preserve" width="68.7916mm" height="42.3139mm" version="1.1" style="shape-rendering:geometricPrecision; text-rendering:geometricPrecision; image-rendering:optimizeQuality; fill-rule:evenodd; clip-rule:evenodd"
viewBox="0 0 1109.53 682.48"
 xmlns:xlink="http://www.w3.org/1999/xlink"
 xmlns:xodm="http://www.corel.com/coreldraw/odm/2003">
 <defs>
  <style type="text/css">
   <![CDATA[
    .fil0 {fill:#FEFEFE;fill-rule:nonzero}
    .fil1 {fill:#5B5B5B;fill-rule:nonzero}
    .fil3 {fill:#E12228;fill-rule:nonzero}
    .fil4 {fill:#1D9CD7;fill-rule:nonzero}
    .fil2 {fill:#139746;fill-rule:nonzero}
   ]]>
  </style>
 </defs>
 <g id="Layer_x0020_1">
  <metadata id="CorelCorpID_0Corel-Layer"/>
  <path class="fil0" d="M172.67 671.03c-88.9,0 -161.23,-72.32 -161.23,-161.23 0,-87.19 68.31,-157.88 155.53,-160.93l1.43 -0.05 -0.26 -1.41c-1.86,-10.12 -2.76,-19.62 -2.76,-29.06 0,-88 71.6,-159.6 159.6,-159.6 7.45,0 15.15,0.64 24.23,2.03l0.81 0.12 0.43 -0.69c57.2,-93.16 156.5,-148.77 265.64,-148.77 158.5,0 291.52,118.62 309.43,275.92l0.11 0.98 0.98 0.11c97.76,10.32 171.48,92.32 171.48,190.74 0,105.78 -86.06,191.85 -191.84,191.85l-733.57 0z"/>
  <path class="fil1" d="M324.97 167.74c-83.05,0 -150.61,67.57 -150.61,150.62 0,8.88 0.85,17.86 2.62,27.43l2.14 11.64 -11.83 0.41c-82.35,2.88 -146.86,69.63 -146.86,151.96 0,83.94 68.3,152.24 152.25,152.24l733.57 0c100.83,0 182.86,-82.03 182.86,-182.86 0,-93.82 -70.27,-171.97 -163.44,-181.81l-8.15 -0.86 -0.92 -8.14c-17.4,-152.76 -146.58,-267.95 -300.51,-267.95 -105.99,0 -202.43,54.02 -257.98,144.49l-3.55 5.78 -6.7 -1.02c-8.63,-1.32 -15.9,-1.93 -22.88,-1.93zm581.27 514.74l-733.57 0c-95.22,0 -172.67,-77.46 -172.67,-172.67 0,-89.55 67.27,-162.85 155.15,-171.61 -0.82,-6.74 -1.22,-13.3 -1.22,-19.84 0,-94.32 76.73,-171.04 171.05,-171.04 6.13,0 12.38,0.4 19.28,1.24 59.8,-93.14 160.92,-148.55 271.83,-148.55 161.63,0 297.71,118.99 319.79,278.07 99.57,14.48 173.67,99.54 173.67,201.12 0,112.1 -91.2,203.29 -203.3,203.29z"/>
  <path class="fil2" d="M526.95 112.99c10.94,-4.15 22.59,-6.82 34.73,-7.8 3.4,-0.27 6.83,-0.46 10.3,-0.46 32.64,0 62.44,12.36 84.98,32.64 11.88,4 23.07,9.51 33.32,16.34 -21.43,-32.29 -55.69,-55.32 -95.46,-61.78 -7.44,-1.21 -15.07,-1.87 -22.85,-1.87 -4.98,0 -9.9,0.27 -14.75,0.77 -71.34,7.4 -127.17,67.88 -127.17,141.16 0,49.26 25.25,92.73 63.47,118.19 10.25,6.83 21.44,12.34 33.32,16.34 14.19,4.77 29.36,7.4 45.14,7.4 24.49,0 47.55,-6.24 67.68,-17.21 -4.85,0.51 -9.78,0.77 -14.75,0.77 -7.78,0 -15.4,-0.65 -22.85,-1.86 -9.65,2.35 -19.72,3.62 -30.08,3.62 -24.93,0 -48.19,-7.24 -67.85,-19.68 -9.99,-6.33 -19.05,-13.99 -26.91,-22.76 -20.19,-22.53 -32.49,-52.26 -32.49,-84.81 0,-54.32 34.22,-100.77 82.23,-119zm142.98 221.56c-10.94,4.15 -22.6,6.82 -34.73,7.81 38.21,-21.98 64.02,-63.2 64.02,-110.36 0,-24.86 -7.19,-48.05 -19.56,-67.67 9.99,6.33 19.05,13.99 26.91,22.75 4.73,14.13 7.33,29.22 7.33,44.92 0,40.3 -16.92,76.7 -43.98,102.56z"/>
  <path class="fil3" d="M690.28 153.7c-10.25,-6.83 -21.44,-12.34 -33.32,-16.33 -14.19,-4.77 -29.36,-7.4 -45.14,-7.4 -44.09,0 -83.55,20.21 -109.6,51.86 -7.61,9.25 -14.05,19.49 -19.16,30.48 -8.43,18.13 -13.17,38.32 -13.17,59.59 0,15.69 2.6,30.79 7.33,44.91 7.86,8.77 16.92,16.43 26.91,22.75 -12.37,-19.61 -19.56,-42.81 -19.56,-67.67 0,-8.09 0.79,-15.99 2.24,-23.67 2.16,-11.43 5.84,-22.32 10.85,-32.46 20.78,-42.09 64.14,-71.12 114.17,-71.12 24.93,0 48.19,7.24 67.85,19.68 9.99,6.32 19.05,13.98 26.91,22.75 20.14,22.47 32.43,52.13 32.49,84.6 5,-10.14 8.68,-21.03 10.84,-32.45 -8.4,-35.49 -30.13,-65.87 -59.62,-85.52zm63.39 121.43c-1.74,76.76 -64.68,138.68 -141.84,138.68 -49.34,0 -92.87,-25.33 -118.3,-63.64 10.25,6.83 21.44,12.34 33.32,16.33 22.55,20.27 52.35,32.64 84.98,32.64 58.49,0 107.86,-39.68 122.68,-93.53 7.62,-9.25 14.06,-19.49 19.17,-30.48z"/>
  <path class="fil4" d="M624.9 73.62c-24.49,0 -47.55,6.24 -67.68,17.2 4.85,-0.5 9.78,-0.77 14.76,-0.77 7.78,0 15.4,0.66 22.84,1.87 9.65,-2.35 19.72,-3.63 30.08,-3.63 70.17,0 127.25,57.09 127.25,127.26 0,8.09 -0.79,16 -2.24,23.67 -2.16,11.43 -5.84,22.32 -10.85,32.45 -14.2,28.76 -38.93,51.4 -69.14,62.87 -10.94,4.15 -22.6,6.82 -34.73,7.8 -3.4,0.27 -6.83,0.45 -10.3,0.45 -70.09,0 -127.13,-56.97 -127.24,-127.04 -5,10.14 -8.68,21.03 -10.85,32.46 13.09,55.29 58.57,98.17 115.24,107.38 7.44,1.21 15.07,1.87 22.85,1.87 4.98,0 9.9,-0.27 14.75,-0.77 38.08,-3.95 71.74,-23.02 94.85,-51.09 7.62,-9.25 14.06,-19.49 19.16,-30.48 8.43,-18.13 13.16,-38.32 13.16,-59.59 0,-78.26 -63.66,-141.93 -141.92,-141.93zm-97.95 39.36c10.94,-4.15 22.6,-6.82 34.73,-7.8 -28.75,16.54 -50.46,43.97 -59.45,76.64 -7.61,9.25 -14.06,19.49 -19.16,30.48 0.88,-39 17.56,-74.15 43.89,-99.32z"/>
  <path class="fil1" d="M235.55 492.55c-2.8,-3.94 -6.49,-7.13 -11.07,-9.58 -4.58,-2.45 -10.16,-3.67 -16.76,-3.67 -3.41,0 -6.78,0.36 -10.11,1.06 -3.34,0.71 -6.51,1.59 -9.52,2.66 -3.02,1.06 -5.82,2.2 -8.41,3.41 -2.6,1.21 -4.84,2.34 -6.75,3.4l0 -46.71c0,-2.83 -0.41,-4.75 -1.22,-5.75 -0.82,-0.99 -2.5,-1.49 -5.06,-1.49l-9.47 0c-2.49,0 -4.2,0.48 -5.16,1.44 -0.96,0.95 -1.43,2.89 -1.43,5.8l0 139.28c0,2.91 0.45,4.83 1.38,5.74 0.92,0.93 2.51,1.39 4.79,1.39l9.58 0c2.55,0 4.29,-0.46 5.22,-1.39 0.92,-0.92 1.38,-2.83 1.38,-5.74l0 -74.59c1.2,-0.92 2.98,-1.97 5.32,-3.14 2.34,-1.17 4.89,-2.27 7.66,-3.3 2.76,-1.02 5.57,-1.87 8.41,-2.55 2.83,-0.68 5.32,-1.01 7.45,-1.01 3.19,0 5.9,0.44 8.14,1.32 2.24,0.89 4.08,2.07 5.54,3.52 1.45,1.45 2.58,3.07 3.4,4.84 0.81,1.78 1.42,3.52 1.81,5.22 0.39,1.7 0.64,3.32 0.75,4.84 0.11,1.53 0.16,2.71 0.16,3.56l0 61.29c0,2.91 0.43,4.83 1.27,5.74 0.85,0.93 2.45,1.39 4.79,1.39l9.47 0c1.28,0 2.35,-0.11 3.19,-0.32 0.85,-0.22 1.5,-0.59 1.97,-1.12 0.46,-0.54 0.8,-1.26 1.01,-2.18 0.21,-0.92 0.32,-2.09 0.32,-3.51l0 -61.72c0,-4.96 -0.64,-9.91 -1.92,-14.84 -1.28,-4.93 -3.32,-9.37 -6.12,-13.3z"/>
  <path class="fil1" d="M321.8 565.7c-1.21,1 -2.65,1.99 -4.31,2.98 -1.67,1 -3.53,1.88 -5.59,2.66 -2.06,0.79 -4.31,1.42 -6.76,1.92 -2.45,0.5 -5.02,0.74 -7.71,0.74 -2.42,0 -4.68,-0.22 -6.81,-0.69 -2.13,-0.46 -4.01,-1.31 -5.64,-2.55 -1.64,-1.23 -2.93,-2.92 -3.89,-5.05 -0.95,-2.13 -1.43,-4.85 -1.43,-8.19 0,-3.12 0.6,-5.71 1.81,-7.77 1.2,-2.05 2.77,-3.73 4.68,-5 1.92,-1.27 4.05,-2.21 6.38,-2.82 2.35,-0.6 4.64,-1.01 6.92,-1.22l22.35 -1.91 0 26.92zm10.16 -78.32c-3.78,-2.9 -8.21,-4.98 -13.28,-6.22 -5.08,-1.24 -10.5,-1.86 -16.24,-1.86 -3.84,0 -7.39,0.26 -10.65,0.75 -3.26,0.5 -6.21,1.1 -8.83,1.81 -2.62,0.71 -4.95,1.47 -6.97,2.29 -2.02,0.82 -3.77,1.54 -5.26,2.18 -1.35,0.58 -2.36,1.16 -3.03,1.76 -0.68,0.6 -1.14,1.22 -1.38,1.86 -0.26,0.64 -0.29,1.33 -0.11,2.08 0.17,0.75 0.44,1.54 0.8,2.4l2.45 6.06c1,1.91 2.09,2.89 3.3,2.93 1.21,0.04 2.83,-0.27 4.89,-0.9 0.92,-0.35 2.09,-0.8 3.51,-1.33 1.42,-0.53 3.05,-1.04 4.9,-1.54 1.84,-0.49 3.86,-0.92 6.06,-1.27 2.19,-0.35 4.5,-0.54 6.91,-0.54 4.61,0 8.39,0.5 11.33,1.49 2.94,1 5.26,2.3 6.97,3.94 1.7,1.63 2.87,3.51 3.51,5.64 0.64,2.13 0.96,4.36 0.96,6.7l0 8.19 -26.07 2.34c-5.1,0.43 -9.97,1.33 -14.58,2.71 -4.61,1.38 -8.65,3.35 -12.12,5.91 -3.48,2.55 -6.23,5.79 -8.25,9.68 -2.02,3.9 -3.03,8.59 -3.03,14.04 0,6.1 0.83,11.27 2.5,15.48 1.66,4.22 3.99,7.63 6.97,10.21 2.98,2.6 6.5,4.46 10.58,5.59 4.08,1.13 8.5,1.7 13.25,1.7 4.04,0 7.71,-0.45 11.01,-1.33 3.3,-0.89 6.25,-1.97 8.83,-3.25 2.6,-1.27 4.81,-2.62 6.65,-4.04 1.85,-1.42 3.34,-2.66 4.47,-3.73l0.96 3.51c0.71,2.77 1.58,4.61 2.62,5.54 1.04,0.92 2.58,1.38 4.65,1.38l8.13 0c2.28,0 3.81,-0.46 4.59,-1.38 0.79,-0.92 1.18,-2.83 1.18,-5.75l0 -65.54c0,-7.16 -1.09,-13.14 -3.26,-17.93 -2.18,-4.79 -5.15,-8.63 -8.93,-11.55z"/>
  <path class="fil1" d="M431.68 482.55c-0.68,-0.39 -1.69,-0.76 -3.03,-1.12 -9.94,-2.2 -19.55,-2.46 -28.84,-0.8 -9.3,1.67 -18.73,5.38 -28.3,11.12 -1.21,0.78 -2.17,1.51 -2.87,2.18 -0.71,0.68 -1.26,1.4 -1.65,2.18 -0.39,0.79 -0.66,1.69 -0.8,2.71 -0.15,1.03 -0.22,2.25 -0.22,3.67l0 79.92c0,2.91 0.51,4.82 1.55,5.74 1.02,0.93 2.67,1.38 4.95,1.38l9.58 0c1.84,0 3.35,-0.45 4.52,-1.38 1.17,-0.92 1.76,-2.83 1.76,-5.74l0 -75.13c3.54,-2.34 6.98,-4.13 10.32,-5.37 3.33,-1.24 6.55,-2.11 9.68,-2.61 3.12,-0.49 6.1,-0.67 8.94,-0.53 2.83,0.15 5.49,0.36 7.98,0.64 1.27,0.15 2.29,0.16 3.03,0.05 0.74,-0.1 1.31,-0.35 1.7,-0.74 0.39,-0.39 0.69,-0.97 0.9,-1.76 0.21,-0.78 0.46,-1.77 0.75,-2.98l0.96 -5.42c0.14,-1.06 0.28,-1.97 0.43,-2.71 0.14,-0.75 0.12,-1.38 -0.06,-1.92 -0.18,-0.53 -0.6,-0.99 -1.27,-1.38z"/>
  <path class="fil1" d="M589.32 491.91c-2.62,-3.73 -6.24,-6.75 -10.84,-9.1 -4.61,-2.34 -10.49,-3.51 -17.65,-3.51 -3.83,0 -7.53,0.34 -11.11,1.01 -3.58,0.68 -7.02,1.56 -10.32,2.66 -3.3,1.1 -6.44,2.35 -9.41,3.73 -2.98,1.38 -5.77,2.78 -8.4,4.2 -2.69,-3.75 -6.1,-6.63 -10.21,-8.61 -4.11,-1.99 -9.07,-2.98 -14.89,-2.98 -5.88,0 -11.36,0.53 -16.43,1.59 -5.06,1.06 -9.62,2.34 -13.67,3.83 -4.03,1.49 -7.56,3.02 -10.58,4.58 -3,1.56 -5.4,2.8 -7.18,3.72 -2.48,1.35 -4.24,2.87 -5.26,4.57 -1.03,1.71 -1.54,4.01 -1.54,6.92l0 77.89c0,2.91 0.44,4.82 1.33,5.75 0.88,0.92 2.57,1.38 5.05,1.38l9.47 0c2.69,0 4.5,-0.46 5.42,-1.38 0.92,-0.92 1.38,-2.83 1.38,-5.75l0 -75.23c1.28,-0.92 2.91,-1.93 4.9,-3.03 1.98,-1.09 4.18,-2.1 6.59,-3.03 2.41,-0.92 4.96,-1.7 7.66,-2.34 2.7,-0.64 5.39,-0.96 8.09,-0.96 3.97,0 7.06,0.8 9.26,2.39 2.19,1.6 3.81,3.61 4.84,6.01 1.02,2.41 1.65,5.02 1.87,7.82 0.21,2.81 0.32,5.41 0.32,7.82l0 60.55c0,1.42 0.09,2.59 0.27,3.51 0.17,0.92 0.51,1.65 1.01,2.18 0.5,0.54 1.15,0.9 1.97,1.12 0.81,0.21 1.86,0.32 3.14,0.32l9.58 0c2.2,0 3.81,-0.46 4.84,-1.38 1.02,-0.92 1.54,-2.83 1.54,-5.75l0 -62.36c0,-4.18 -0.39,-8.12 -1.17,-11.81 1.34,-1.06 3.09,-2.19 5.22,-3.4 2.13,-1.2 4.44,-2.32 6.96,-3.35 2.51,-1.02 5.14,-1.9 7.87,-2.61 2.73,-0.71 5.38,-1.06 7.93,-1.06 2.91,0 5.35,0.41 7.35,1.22 1.98,0.82 3.6,1.92 4.84,3.3 1.24,1.38 2.18,3 2.82,4.84 0.64,1.85 1.08,3.78 1.33,5.8 0.24,2.02 0.37,4.08 0.37,6.17l0 5.91 0 57.35c0,1.42 0.09,2.59 0.27,3.51 0.18,0.92 0.5,1.65 0.95,2.18 0.46,0.54 1.11,0.9 1.96,1.12 0.85,0.21 1.9,0.32 3.18,0.32l9.42 0c2.19,0 3.82,-0.46 4.92,-1.38 1.1,-0.92 1.64,-2.83 1.64,-5.75l0 -63.63c0,-4.75 -0.5,-9.48 -1.49,-14.21 -0.99,-4.71 -2.8,-8.93 -5.43,-12.66z"/>
  <path class="fil1" d="M693.18 552.19c-1.42,4.83 -3.43,8.78 -6.01,11.86 -2.59,3.08 -5.71,5.36 -9.36,6.81 -3.66,1.46 -7.76,2.18 -12.29,2.18 -4.47,0 -8.57,-0.69 -12.29,-2.07 -3.73,-1.38 -6.92,-3.6 -9.58,-6.65 -2.66,-3.05 -4.72,-6.98 -6.17,-11.81 -1.46,-4.82 -2.18,-10.71 -2.18,-17.66 0,-6.31 0.72,-11.79 2.18,-16.44 1.45,-4.64 3.51,-8.49 6.17,-11.54 2.66,-3.05 5.81,-5.32 9.47,-6.81 3.65,-1.49 7.71,-2.24 12.18,-2.24 4.32,0 8.34,0.74 12.03,2.18 3.68,1.46 6.86,3.71 9.52,6.76 2.66,3.05 4.74,6.88 6.23,11.49 1.49,4.61 2.24,10.1 2.24,16.49 0,6.81 -0.71,12.63 -2.13,17.45zm8.14 -60.28c-4.79,-4.43 -10.31,-7.64 -16.55,-9.63 -6.25,-1.99 -12.66,-2.98 -19.26,-2.98 -8.3,0 -15.68,1.3 -22.13,3.89 -6.46,2.59 -11.9,6.28 -16.33,11.07 -4.44,4.79 -7.82,10.61 -10.16,17.45 -2.34,6.85 -3.51,14.52 -3.51,23.03 0,9.3 1.2,17.47 3.61,24.53 2.41,7.06 5.85,12.98 10.32,17.76 4.47,4.79 9.91,8.41 16.34,10.86 6.42,2.45 13.63,3.67 21.65,3.67 8.09,0 15.34,-1.24 21.76,-3.72 6.42,-2.48 11.86,-6.12 16.33,-10.91 4.47,-4.79 7.89,-10.71 10.27,-17.77 2.37,-7.05 3.56,-15.16 3.56,-24.31 0,-10.07 -1.46,-18.63 -4.36,-25.69 -2.91,-7.06 -6.76,-12.8 -11.55,-17.24z"/>
  <path class="fil1" d="M819.08 491.38c-2.98,-3.65 -6.88,-6.58 -11.69,-8.78 -4.82,-2.19 -10.77,-3.3 -17.86,-3.3 -5.74,0 -11.19,0.54 -16.36,1.6 -5.18,1.06 -9.87,2.34 -14.08,3.83 -4.22,1.49 -7.89,3 -11,4.52 -3.12,1.53 -5.46,2.75 -7.02,3.67 -2.41,1.42 -4.23,3 -5.47,4.73 -1.24,1.74 -1.86,4.06 -1.86,6.97l0 77.78c0,2.91 0.49,4.83 1.49,5.75 0.99,0.92 2.58,1.38 4.79,1.38l9.58 0c2.41,0 4.1,-0.46 5.06,-1.38 0.96,-0.92 1.43,-2.83 1.43,-5.75l0 -74.27c1.55,-0.92 3.51,-1.97 5.85,-3.14 2.34,-1.17 4.84,-2.25 7.5,-3.25 2.66,-0.99 5.43,-1.84 8.3,-2.55 2.87,-0.71 5.69,-1.07 8.45,-1.07 3.83,0 6.97,0.71 9.42,2.13 2.45,1.42 4.36,3.23 5.75,5.42 1.38,2.2 2.34,4.65 2.87,7.34 0.53,2.7 0.8,5.32 0.8,7.87l0 61.5c0,2.91 0.54,4.83 1.59,5.75 1.05,0.92 2.68,1.38 4.86,1.38l9.43 0c2.33,0 3.98,-0.46 4.98,-1.38 0.99,-0.92 1.48,-2.83 1.48,-5.75l0 -62.99c0,-5.32 -0.64,-10.41 -1.91,-15.27 -1.28,-4.85 -3.4,-9.11 -6.37,-12.77z"/>
  <path class="fil1" d="M909.94 571.98c-8.09,0 -15.05,-1.54 -20.91,-4.63 -5.85,-3.09 -10.68,-7.24 -14.47,-12.45 -3.8,-5.22 -6.58,-11.19 -8.35,-17.93 -1.78,-6.74 -2.63,-13.79 -2.55,-21.18 0.07,-7.88 1.06,-15.28 2.98,-22.24 1.92,-6.95 4.79,-13 8.62,-18.15 3.83,-5.14 8.63,-9.2 14.42,-12.18 5.78,-2.98 12.61,-4.47 20.48,-4.47 7.45,0 14.01,1.43 19.69,4.31 5.67,2.87 10.43,6.86 14.26,11.97 3.83,5.11 6.7,11.12 8.62,18.04 1.91,6.91 2.87,14.41 2.87,22.5 0,8.51 -1.01,16.25 -3.03,23.2 -2.03,6.95 -4.99,12.87 -8.89,17.76 -1.24,1.55 -2.59,2.95 -4,4.28 -7.14,-8.07 -12.27,-15.09 -14.92,-18.91 -1.17,-1.7 -3.47,-2.18 -5.22,-1.09l-10.8 6.75c-1.85,1.16 -2.41,3.6 -1.18,5.4 2.52,3.7 7.16,10.14 13.6,17.74 -3.49,0.81 -7.21,1.25 -11.21,1.25zm70 22.99c-9.21,-5.37 -17.57,-11.87 -24.9,-18.51 1.18,-1.02 2.36,-2.03 3.47,-3.15 6.13,-6.21 10.97,-14.1 14.52,-23.68 3.55,-9.58 5.32,-20.92 5.32,-34.05 0.07,-12.56 -1.62,-23.6 -5.05,-33.14 -3.44,-9.54 -8.21,-17.51 -14.31,-23.89 -6.1,-6.38 -13.34,-11.19 -21.71,-14.42 -8.37,-3.22 -17.45,-4.84 -27.24,-4.84 -10,0 -19.23,1.58 -27.66,4.73 -8.45,3.16 -15.75,7.93 -21.92,14.31 -6.17,6.39 -11,14.36 -14.47,23.94 -3.48,9.57 -5.25,20.75 -5.32,33.51 0,12.77 1.76,23.89 5.27,33.36 3.51,9.47 8.36,17.34 14.58,23.62 6.2,6.28 13.54,10.98 22.03,14.1 8.47,3.12 17.67,4.68 27.61,4.68 9.47,0.06 18.28,-1.38 26.47,-4.32 9.38,9.04 20.6,18.2 33.42,25.6 1.88,1.09 4.32,0.36 5.36,-1.55l6.04 -11.17c0.99,-1.84 0.31,-4.09 -1.5,-5.14z"/>
 </g>
</svg>
